<?xml version="1.0" standalone="no"?>
<!DOCTYPE svg PUBLIC "-//W3C//DTD SVG 20010904//EN"
 "http://www.w3.org/TR/2001/REC-SVG-20010904/DTD/svg10.dtd">
<svg version="1.0" xmlns="http://www.w3.org/2000/svg"
 width="700.000000pt" height="700.000000pt" viewBox="0 0 700.000000 700.000000"
 preserveAspectRatio="xMidYMid meet">
<metadata>
Created by potrace 1.11, written by Peter Selinger 2001-2013
</metadata>
<g transform="translate(0.000000,700.000000) scale(0.100000,-0.100000)"
fill="#000000" stroke="none">
<path d="M3290 6028 c-187 -110 -281 -164 -660 -383 -69 -39 -170 -98 -225
-130 -223 -129 -268 -155 -272 -155 -2 0 -22 -12 -46 -27 -40 -25 -611 -357
-962 -558 -88 -51 -184 -106 -213 -124 -29 -17 -57 -31 -62 -31 -6 0 -10 -4
-10 -10 0 -5 -4 -10 -8 -10 -10 0 -351 -194 -369 -209 -7 -6 -15 -11 -18 -11
-3 0 -35 -18 -71 -40 -36 -22 -68 -40 -70 -40 -2 0 -38 -21 -81 -46 -43 -25
-103 -60 -133 -77 -94 -52 -90 -47 -90 -104 0 -46 3 -53 28 -66 15 -7 166 -94
337 -192 171 -98 416 -238 545 -312 129 -74 239 -139 244 -144 6 -5 11 -239
12 -581 1 -559 2 -574 23 -628 28 -72 84 -153 137 -196 24 -20 139 -91 256
-158 203 -117 880 -508 1093 -631 55 -32 120 -69 145 -83 25 -13 50 -28 55
-32 12 -9 86 -50 171 -95 77 -42 231 -91 314 -101 122 -14 197 -12 340 10 54
9 193 59 262 95 68 35 781 444 803 461 6 4 46 26 90 50 44 23 87 49 96 56 33
29 40 17 39 -63 -4 -204 -2 -219 24 -231 14 -6 26 -19 28 -30 3 -15 33 -1 203
94 110 62 201 120 203 129 2 8 8 15 14 15 6 0 7 17 2 47 -4 27 -8 111 -9 189
l-2 140 100 58 c153 90 218 158 259 274 23 64 25 111 32 803 2 218 6 401 10
407 3 5 52 36 108 68 57 32 111 63 120 69 23 14 228 132 304 175 33 19 185
107 337 194 l277 160 0 51 0 51 -112 64 c-62 36 -121 69 -130 75 -110 65 -182
105 -189 105 -5 0 -9 5 -9 10 0 6 -4 10 -10 10 -5 0 -47 22 -92 49 -46 27 -99
58 -118 69 -19 11 -156 90 -305 177 -148 86 -288 167 -310 180 -22 12 -204
118 -405 235 -845 492 -1047 609 -1080 628 -40 23 -188 109 -228 133 -15 9
-47 27 -72 41 -25 14 -130 76 -235 137 -104 61 -194 110 -200 110 -5 0 -102
-55 -215 -121z"/>
</g>
</svg>
